<svg width="193" height="36" viewBox="0 0 193 36" fill="none" xmlns="http://www.w3.org/2000/svg">
<path fill-rule="evenodd" clip-rule="evenodd" d="M147.815 0.676758C149.581 0.676758 151.003 2.13776 151.003 3.94076C151.003 5.74226 149.576 7.20626 147.814 7.20626C146.048 7.20626 144.615 5.76026 144.615 3.95426C144.615 2.14826 146.048 0.703758 147.814 0.703758L147.815 0.676758ZM13.4103 25.3533L15.3067 24.4593V4.52426L13.3113 3.57476V1.91126L20.693 0.691758H21.1941V10.6668H21.3922C23.0712 9.10752 25.279 8.24243 27.5706 8.24576C30.5939 8.24576 32.0942 9.78626 32.0942 13.1463V24.4563L34.0132 25.3533V27.0393H24.2384V25.3533L26.1588 24.4563V14.5158C26.1588 12.6558 25.3636 11.9598 23.7537 11.9598C22.9146 11.954 22.0823 12.1119 21.3037 12.4248V24.4593L23.2241 25.3578V27.0438H13.4253V25.3503L13.4103 25.3533ZM2.85679 21.9363V11.7963H0.111145V9.02276L2.85679 8.64626V5.18726L8.7787 4.33676V8.64776H12.7051V11.8083H8.7802V21.4263C8.7802 23.2323 9.27231 24.1578 11.0082 24.1578C11.6264 24.1578 12.4696 24.0903 12.8987 24.0003V26.3463C11.9504 26.9193 9.92047 27.4068 8.04502 27.4068C4.51469 27.4068 2.8598 25.8168 2.8598 21.9363H2.85829H2.85679ZM42.3401 10.2558C43.827 10.2558 44.6297 10.5258 44.6297 15.9048L39.6665 16.2018C39.7325 11.3268 40.4512 10.2558 42.3401 10.2558ZM39.716 18.3903H50.3895C50.3895 10.6998 47.8089 8.24876 42.4392 8.24876C37.1069 8.24876 33.6066 11.7618 33.6066 17.7948C33.6066 24.0258 36.7798 27.4728 42.9313 27.4728C46.2366 27.4728 48.9057 25.9593 49.7354 24.8088V23.0238C48.4931 23.4093 47.2148 23.6568 44.9252 23.6568C41.6985 23.6568 40.0332 21.9461 39.716 18.3903ZM142.963 11.1078V9.45926L150.412 8.24126H150.913V24.4968L152.814 25.3998V27.0708H143.056V25.3773L144.958 24.4743V12.0573L142.963 11.1078ZM163.195 23.4963V18.5463L161.81 18.6813C160.43 18.8163 159.302 19.7538 159.302 21.5073C159.302 23.5278 160.387 24.1953 161.53 24.1953C162.191 24.1953 162.865 23.8608 163.194 23.4948L163.195 23.4963ZM157.737 14.4483L158.994 10.7103H158.934C159.288 10.6728 159.84 10.6323 160.15 10.6323C162.423 10.6323 163.128 11.8023 163.128 14.1543V16.5453L159.707 17.1558C155.78 17.9898 153.375 18.6003 153.375 22.3473C153.375 25.3953 155.383 27.4953 158.561 27.4953C160.789 27.4953 162.906 26.5023 163.701 24.8763H163.878C164.154 26.8638 165.825 27.4728 167.69 27.4728C169.131 27.4728 170.451 27.0633 171.033 26.7423V25.3623L169.135 24.4593V13.8018C169.135 9.69326 166.265 8.24876 161.488 8.24876C158.81 8.24876 156.943 8.876 155.418 9.38813C155.155 9.47654 154.902 9.56153 154.657 9.63926V14.4483H157.737ZM171.518 25.3548L173.416 24.4743V12.0573L171.42 11.1093V9.46076L178.803 8.26376H179.305V10.7028H179.504C181.184 9.1458 183.391 8.28288 185.681 8.28776C188.704 8.28776 190.205 9.82226 190.205 13.1868V24.4968L192.125 25.3998V26.0455V27.0948H182.35V25.4223L184.269 24.5373V14.5173C184.269 12.6558 183.474 11.9598 181.864 11.9598C181.025 11.9542 180.194 12.1121 179.416 12.4248V24.4593L181.312 25.3578V27.0438H171.56V25.3503L171.518 25.3548ZM132.681 3.61376L134.672 4.53926H134.735V9.05426C134.007 8.51276 132.839 8.28776 131.845 8.28776C127.101 8.28776 123.107 10.9518 123.107 18.3333C123.107 25.3548 127.013 27.4773 130.279 27.4773C132.507 27.4773 134.03 26.4618 134.78 25.4898H134.978V27.3873H135.464L142.523 26.5518V24.9708L140.627 23.9103V0.723258H140.126L132.681 1.94276V3.61376ZM134.672 23.8203V11.4228C134.207 11.0628 133.722 10.7628 132.642 10.7628C130.78 10.7628 129.355 12.4773 129.355 17.6478C129.355 22.1763 130.48 24.1488 132.836 24.1488C133.751 24.1488 134.265 23.9598 134.666 23.7933L134.672 23.8203ZM56.4435 30.7053C56.4435 31.9698 57.5612 33.1443 60.8125 33.1443C64.5409 33.1443 65.5716 31.9473 65.5671 30.0513C65.5671 29.1033 64.898 28.6503 63.4276 28.6503H57.1336C56.673 29.2158 56.4435 29.8248 56.4435 30.7053ZM60.8635 10.3863C62.1658 10.3863 63.003 10.9743 63.003 14.6313C63.003 18.2883 62.1628 18.6708 60.883 18.6708C59.6032 18.6708 58.778 18.3648 58.778 14.6358C58.778 10.9098 59.5942 10.3908 60.8935 10.3908L60.8635 10.3863ZM58.4149 23.0973H64.8124L64.8064 23.0253C68.7554 23.0253 70.6983 24.6963 70.6983 28.2858C70.6983 32.6433 67.6706 35.3973 60.676 35.3973C55.0481 35.3973 51.5943 33.5913 51.5943 31.1523C51.5943 28.7823 53.8554 28.1043 55.8748 27.6753V27.4788C53.9559 27.0573 53.0362 25.6503 53.0362 24.2283C53.0362 22.2798 55.0106 20.7588 56.0369 20.0178V19.8258C54.2575 18.8283 53.0662 17.0238 53.0662 14.6013C53.0662 10.6248 56.2559 8.28476 60.868 8.28476C62.3024 8.28476 63.8822 8.73626 65.015 9.16526H65.2701L69.8221 8.23976H70.1522V11.9223L69.7546 11.8998L66.7989 10.8393V10.9743C67.9467 12.0123 68.6744 13.0278 68.6744 14.8113C68.6744 18.8073 65.5191 20.9523 60.907 20.9523C59.7157 20.9523 58.9221 20.8623 57.9513 20.5683C57.5102 20.9073 57.1561 21.4278 57.1561 21.9228C57.1561 22.5558 57.7308 23.0973 58.4149 23.0973ZM109.625 9.46226V11.1318L111.633 12.0798V24.4968L109.736 25.3998V27.0948H120.017V25.4223L117.568 24.5193V14.2893C118.582 13.7943 119.917 13.6263 121.517 13.6263C122.042 13.6263 122.665 13.6938 123.023 13.7913V8.44226C122.825 8.37476 122.435 8.34326 122.141 8.34326C120.177 8.34326 118.573 9.63776 117.526 12.0918H117.349V8.22626H116.842L109.627 9.44126V9.46076L109.625 9.46226ZM101.418 18.5598V23.5263H101.448C101.121 23.8878 100.446 24.2268 99.7842 24.2268C98.6364 24.2268 97.5562 23.5713 97.5562 21.5388C97.5562 19.7793 98.6815 18.8298 100.05 18.6948L101.418 18.5598ZM97.2021 10.7253L95.9448 14.4738H92.8601V9.63926C93.1103 9.56041 93.3685 9.4741 93.6371 9.38433C95.1668 8.8729 97.0338 8.24876 99.6987 8.24876C104.488 8.24876 107.355 9.69326 107.355 13.8018V24.4593L109.253 25.3623V26.7423C108.68 27.0633 107.355 27.4728 105.922 27.4728C104.068 27.4728 102.39 26.8638 102.126 24.8763H101.949C101.154 26.5023 99.0385 27.4953 96.8225 27.4953C93.6508 27.4953 91.6598 25.3953 91.6598 22.3473C91.6598 18.6003 94.0799 17.9898 98.0048 17.1558L101.442 16.5453V14.1543C101.442 11.8023 100.749 10.6323 98.4639 10.6323C98.1653 10.6323 97.6027 10.6728 97.2456 10.7103L97.2066 10.7253H97.2021ZM70.6383 11.1093L72.6233 12.0573L72.5993 12.0558V21.6258C72.5993 24.8088 74.1372 27.4263 77.7335 27.4263C80.1536 27.4263 82.041 26.3658 83.1828 24.9213H83.3823L83.3883 27.3603H83.909L91.1467 26.5473V24.9573L89.1602 23.8968V8.22776H88.6756L81.2398 9.44276V11.1063L83.2473 12.0558V23.1783L83.1411 23.22C82.5973 23.4345 82.1439 23.6133 81.1078 23.6133C79.603 23.6133 78.6037 23.2413 78.6037 21.1533V8.26376H78.0951L70.6383 9.46076V11.1093Z" fill="#DADADA"/>
</svg>
