<svg width="122" height="45" viewBox="0 0 122 45" fill="none" xmlns="http://www.w3.org/2000/svg">
<path fill-rule="evenodd" clip-rule="evenodd" d="M22.3535 0.25C20.9472 2.15059 15.8263 11.0341 12.7241 16.4791L12.9477 28.465C12.9477 28.465 11.9595 28.285 11.1657 28.285C10.4474 28.285 9.37586 28.465 9.37586 28.465L9.59943 16.4791C9.28343 15.9324 8.85073 15.1729 8.33618 14.2698L8.33613 14.2697C6.14508 10.4241 2.46985 3.97347 0.000518799 0.25C1.53772 0.599412 2.18065 0.578235 3.7205 0.25C5.15717 2.79672 7.16291 6.09604 9.12873 9.32969C9.82018 10.4671 10.5067 11.5964 11.1618 12.6819C11.4448 12.2165 11.7462 11.7214 12.0597 11.2063L12.0598 11.2062L12.0598 11.2061L12.0599 11.206L12.0601 11.2057C14.4973 7.20188 17.6654 1.9972 18.603 0.25C19.8029 0.563676 21.012 0.554412 22.3521 0.25L22.3508 0.251324L22.3535 0.25ZM113.698 14.47C113.698 22.5832 108.205 27.209 99.7943 27.209C89.8567 27.209 85.8603 21.1896 85.8603 14.3496C85.8603 6.04706 91.8675 1.58147 99.7282 1.58147C108.574 1.58147 113.698 6.82 113.698 14.47ZM99.7374 2.96985C105.64 2.96985 109.987 6.55794 109.987 14.47C109.987 23.0703 104.729 25.8603 99.7467 25.8603C94.4247 25.8603 89.5763 22.7354 89.5763 14.2993C89.5763 5.55735 94.9499 2.96985 99.7374 2.96985ZM114.305 26.8384C114.305 25.8788 114.889 24.9854 116.059 24.9854H116.061C117.18 24.9854 118.019 25.6551 118.019 26.7259C118.019 28.06 117.135 28.5524 116.328 28.5524C115.21 28.5524 114.305 27.9713 114.305 26.8384ZM72.4938 4.28015C77.3197 4.28015 80.865 7.56912 80.865 14.4422C80.865 21.306 77.325 24.595 72.503 24.595C67.2419 24.595 64.1516 20.8229 64.1516 14.4607C64.1516 7.26471 67.9602 4.36882 72.2874 4.28015H72.4938ZM84.5387 14.4978C84.5387 20.9778 80.578 25.8603 72.4686 25.8603C64.9678 25.8603 60.4462 21.5271 60.4462 14.4237C60.4462 7.93309 64.5868 2.92618 72.4805 2.92618C79.8094 2.92618 84.5387 7.27397 84.5387 14.4978ZM31.7817 17.4546C30.4033 13.9776 29.0473 10.5113 27.813 7.07147C27.0047 9.40088 25.4715 13.3543 23.8563 17.4519H23.8589C26.4964 17.5432 29.1363 17.5432 31.7738 17.4519L31.7817 17.4546ZM34.9844 25.5638C36.2025 25.2567 37.4774 25.2544 38.6965 25.5572L38.6925 25.5559C36.4555 21.3775 31.9656 10.4438 29.1134 3.22C28.1874 3.54294 27.432 3.52441 26.5232 3.22L26.5192 3.21868C23.5229 10.7403 20.0701 19.2307 16.9653 25.5612V25.5638L16.9785 25.5585L16.9653 25.5612L16.9918 25.5519L16.9785 25.5572C18.3993 25.2065 19.7526 25.315 20.6482 25.5572L20.643 25.5546L20.6469 25.5559C20.9878 24.6949 21.3489 23.7847 21.7214 22.8453L21.7217 22.8447C22.215 21.6009 22.7285 20.3061 23.2424 19.0071L23.2464 19.0097C26.2967 18.9167 29.3492 18.9167 32.3995 19.0097L32.6923 19.747C33.4617 21.6843 34.2319 23.6235 34.9844 25.5638ZM55.652 3.22794C55.8332 6.69956 55.9298 10.1738 55.943 13.6507C51.7786 13.7474 47.6194 13.7566 43.4642 13.6507C43.4774 10.1738 43.5727 6.69956 43.7539 3.22794C42.5314 3.5264 41.2551 3.5264 40.0326 3.22794C40.3567 10.6847 40.3289 18.1282 40.0326 25.5612C41.2534 25.2634 42.5278 25.2634 43.7486 25.5612L43.742 25.5572L43.7539 25.5612C43.5717 22.1017 43.4747 18.6383 43.4629 15.1741H43.4642C47.6236 15.1153 51.7836 15.1135 55.943 15.1688C55.9319 18.6348 55.8348 22.1 55.652 25.5612L55.6652 25.5572L55.6573 25.5612C56.8781 25.2634 58.1525 25.2634 59.3733 25.5612C59.077 18.1282 59.0492 10.6847 59.3733 3.22794C58.1508 3.5264 56.8745 3.5264 55.652 3.22794ZM121.722 3.22844C121.803 2.90053 121.889 2.5523 121.889 2.28956H121.891C121.891 1.30485 121.265 0.731765 120.33 0.576912V0.575588C120.33 0.575588 120.098 0.543824 119.942 0.543824C119.049 0.543824 118.163 1.06662 118.163 2.40735C117.634 9.12824 117.082 15.8703 116.174 22.2841L116.17 22.2881H116.178C116.727 22.1928 117.152 22.3357 117.566 22.5025L117.563 22.4999C118.392 17.2588 120.136 9.91968 121.113 5.81122C121.35 4.81201 121.542 4.0039 121.664 3.46353C121.682 3.38741 121.702 3.30853 121.722 3.22844Z" fill="#DADADA"/>
<path fill-rule="evenodd" clip-rule="evenodd" d="M66.7164 42.6362C65.9921 42.6478 65.2754 42.4872 64.6252 42.1677C64.0261 41.8742 63.5255 41.4125 63.1846 40.8388C62.8396 40.2493 62.663 39.5763 62.6739 38.8933C62.6739 38.1865 62.8459 37.5433 63.1885 36.9649C63.5309 36.387 64.0324 35.9202 64.6331 35.6202C65.2793 35.2962 65.994 35.1327 66.7167 35.1437C67.3156 35.1413 67.9116 35.2274 68.4854 35.3991C69.0516 35.5712 69.6667 35.8465 70.3335 36.229V34.2609C69.727 33.9528 69.0881 33.7136 68.4285 33.5475C67.8364 33.4075 67.2299 33.3374 66.6214 33.3384C65.4599 33.3384 64.4162 33.574 63.4888 34.0438C62.5628 34.5137 61.8352 35.1821 61.306 36.0503C60.7769 36.9185 60.5123 37.8966 60.5123 38.9872C60.5123 40.005 60.7676 40.9408 61.2822 41.7958C61.7848 42.64 62.5196 43.3219 63.3989 43.7599C64.2984 44.2152 65.3171 44.4415 66.46 44.4415C67.2445 44.4415 67.9311 44.3647 68.5198 44.2099C69.1918 44.0215 69.8409 43.7591 70.4552 43.4277V41.4596C69.635 41.903 68.955 42.21 68.4153 42.3808C67.8654 42.5527 67.2924 42.6388 66.7164 42.6362ZM66.7164 42.6362L66.7154 42.6362H66.7167L66.7164 42.6362ZM40.8832 35.1119H37.0415V33.4774H46.8151V35.1133H42.9734V44.3025H40.8832V35.1119ZM56.9326 39.5921H52.2389V42.668H57.2501V44.3038H50.1474V33.4774H57.1416V35.1133H52.2389V37.9562H56.9326V39.5921ZM76.2838 38.0343H81.8982V33.4774H83.9884V44.3025H81.8982V39.731H76.2825V44.3038H74.1924V33.4774H76.2838V38.0343Z" fill="#DADADA"/>
</svg>
