<svg width="151" height="60" viewBox="0 0 151 60" fill="none" xmlns="http://www.w3.org/2000/svg">
<path fill-rule="evenodd" clip-rule="evenodd" d="M62.2312 16.1643L62.3424 16.1094C62.5679 15.9983 62.7128 15.7434 62.7333 15.4263C62.7538 15.1195 62.6469 14.8646 62.442 14.7253L62.3381 14.6557L61.5519 14.5816C60.7716 14.5104 60.7716 14.5104 60.7716 12.4846V3.04911H62.3293C63.3394 3.04911 64.0421 3.18989 64.4125 3.4685C64.4681 3.51888 64.6335 3.82861 64.7301 4.63923L64.7477 4.78742L64.8414 4.90005C65.0361 5.13716 65.3582 5.19051 65.5909 5.16235C65.8483 5.14349 66.0781 4.99248 66.1999 4.76223L66.2629 4.63182L66.2482 4.48955C66.1926 3.92642 66.3361 2.29184 66.5425 1.51678L66.5923 1.32858L66.5044 1.15667C66.3141 0.780259 65.7929 0.741729 65.5089 0.860284L65.3508 0.924007L65.2645 1.0722L65.2643 1.07248C65.0829 1.39083 65.0753 1.40416 64.0933 1.40416H55.6771C54.768 1.40416 54.5645 1.36118 54.5279 1.17001L54.4987 1.01441L54.3874 0.90326C54.1063 0.629101 53.5705 0.710608 53.3714 0.848428L53.1987 0.966983L53.1636 1.17445C53.0215 1.98952 52.7244 3.27733 52.4023 4.18279L52.332 4.38582L52.4272 4.57699C52.5499 4.80765 52.7659 4.97269 53.0186 5.02898C53.2646 5.08826 53.5164 5.03935 53.7023 4.89857L53.8062 4.82002L53.8589 4.69851L53.8608 4.69422C54.062 4.2307 54.2365 3.82887 54.6641 3.43441C55.0784 3.04911 56.3666 3.04911 56.8527 3.04911H58.1V12.4846C58.1 14.5049 58.0707 14.5075 57.2829 14.577L57.2816 14.5771L56.4237 14.6512L56.3242 14.7134C56.0883 14.8719 55.9569 15.1482 55.9816 15.4337C55.9963 15.7404 56.1383 15.9909 56.3623 16.105L56.475 16.1613L56.6009 16.1583C57.5457 16.1221 58.491 16.1013 59.4365 16.0961C60.2695 16.0961 61.0029 16.1198 62.1082 16.1583L62.2327 16.1613L62.2312 16.1643ZM86.8078 16.1628L86.6951 16.108H86.6965C86.4974 16.0087 86.3598 15.7997 86.3159 15.5344C86.2633 15.265 86.3411 14.9863 86.5252 14.7846L86.6526 14.6586L87.5061 14.5786L87.5077 14.5785C88.2967 14.5089 88.3288 14.5061 88.3288 12.4861V5.01712C88.3288 3.70316 88.3288 3.24458 88.1035 3.05754C87.9826 2.95727 87.797 2.93505 87.5119 2.90091L87.064 2.8446L86.9674 2.77643C86.7639 2.63861 86.657 2.3852 86.676 2.07992C86.698 1.76278 86.8415 1.50789 87.064 1.39526L87.1782 1.33895L87.307 1.34488C88.1062 1.38408 88.9062 1.40434 89.7064 1.40564H93.5639C94.6457 1.40564 95.9925 1.40564 96.2195 1.35673L96.644 1.26782L96.8021 1.67831C96.9265 2.03398 97.0231 3.05207 97.1373 4.3458L97.1725 4.73111L97.0773 4.87634C96.9242 5.0879 96.682 5.2146 96.4229 5.21867C96.1594 5.232 95.9164 5.14309 95.77 4.96525L95.7085 4.88968L95.6412 4.67628C95.3455 3.73228 95.1962 3.34253 94.47 3.15877C94.0923 3.06837 93.4482 3.05059 92.6006 3.05059H91.122L91.0049 3.05207C91.002 3.14247 91.002 3.26251 91.002 3.3781V7.60607L91.1835 7.60755H92.3737C93.6327 7.60755 93.9328 7.52012 93.9621 7.50826C93.9982 7.49683 94.0143 7.48893 94.0204 7.48591L94.0228 7.4848L94.0235 7.48455L94.0245 7.48304C94.0315 7.47271 94.0763 7.40637 94.126 7.16001L94.3134 6.18637L94.3939 6.08708C94.5535 5.89443 94.8258 5.7981 95.1259 5.82033C95.3757 5.83091 95.6044 5.96496 95.7378 6.17896L95.8037 6.29455V6.42793C95.8037 6.65111 95.7885 6.93166 95.7715 7.2451L95.77 7.27263C95.7466 7.6609 95.7217 8.09956 95.7217 8.52339C95.7258 8.92392 95.7419 9.32422 95.77 9.72376C95.789 10.032 95.8037 10.3076 95.8037 10.5151V10.6485L95.7393 10.7641C95.6053 10.9789 95.3752 11.1131 95.1244 11.1227C94.8272 11.1464 94.552 11.0486 94.3925 10.856L94.3193 10.7641L94.107 9.83935C94.0266 9.47369 93.933 9.44965 93.835 9.42449L93.8347 9.42441C93.5595 9.34587 92.971 9.33549 92.3737 9.33549H91.0005V12.3201C91.0005 13.1189 91.0327 13.891 91.2567 14.134L91.2573 14.1346C91.3383 14.2152 91.5772 14.4526 93.3794 14.4526C94.9722 14.4526 95.4538 14.3622 95.7861 14.1963C95.9398 14.1073 96.4273 13.6035 97.0202 12.4061L97.0759 12.2949L97.1783 12.2208C97.3861 12.0822 97.6434 12.0427 97.8825 12.1126C98.1238 12.1749 98.3248 12.3435 98.43 12.572L98.4944 12.7173L98.4637 12.8744C98.31 13.642 97.7873 15.2692 97.4989 15.8768L97.3599 16.1657L97.0422 16.1598C95.1918 16.1183 93.3457 16.0976 91.5524 16.0976H89.7064C88.7814 16.1016 87.8565 16.1223 86.9322 16.1598L86.8078 16.1628ZM115.233 22.7115L115.391 22.6463C115.678 22.5292 116.198 22.5677 116.388 22.9456L116.475 23.1175L116.425 23.3028C116.212 24.1 116.075 25.705 116.13 26.2755L116.145 26.4178L116.082 26.5467C115.961 26.7777 115.732 26.9299 115.475 26.9498C115.239 26.9765 114.918 26.9246 114.724 26.6875L114.63 26.5749L114.612 26.4267C114.516 25.6161 114.35 25.3049 114.295 25.2545C113.923 24.9759 113.222 24.8351 112.212 24.8351H110.654V34.2706C110.654 35.6034 110.654 36.0594 110.876 36.2347C110.991 36.3259 111.166 36.3413 111.433 36.3646L112.22 36.4402L112.323 36.5098C112.528 36.6506 112.635 36.9055 112.614 37.2108C112.594 37.5264 112.447 37.7813 112.225 37.8925L112.113 37.9488L111.989 37.9443C110.89 37.9058 110.161 37.8836 109.317 37.8836C108.371 37.8887 107.425 37.9089 106.479 37.9443L106.354 37.9488L106.243 37.8925C106.019 37.7798 105.877 37.5309 105.862 37.2256C105.836 36.9401 105.966 36.6629 106.201 36.5024L106.303 36.4372L107.162 36.3646C107.95 36.2949 107.981 36.292 107.981 34.2706V24.8351H106.731C106.246 24.8351 104.958 24.8351 104.543 25.2219C104.116 25.6161 103.94 26.0192 103.738 26.486L103.686 26.6045L103.583 26.6831C103.386 26.8269 103.135 26.8751 102.899 26.815C102.646 26.7596 102.429 26.5944 102.307 26.363L102.211 26.1718L102.283 25.9703C102.608 24.9876 102.862 23.9821 103.041 22.9619L103.078 22.753L103.252 22.6344C103.453 22.4966 103.992 22.4136 104.27 22.6937L104.378 22.8034L104.407 22.956C104.442 23.1457 104.658 23.1901 105.561 23.1901H113.976C114.958 23.1901 114.965 23.1783 115.147 22.8597L115.233 22.7115ZM98.897 37.6583L98.9076 37.6555C99.0771 37.6114 99.5462 37.4894 99.7783 37.4894H99.9422L100.074 37.3886C100.228 37.2729 100.324 37.0947 100.338 36.901C100.352 36.7087 100.282 36.5197 100.147 36.3838L100.074 36.3097L99.9788 36.2727C99.9774 36.2727 99.8017 36.1927 99.8017 35.2665V34.1046C99.8017 32.9131 99.8866 32.9028 100.248 32.8598L100.727 32.8005L100.841 32.6997C101.04 32.5153 101.138 32.2446 101.105 31.9736C101.089 31.7226 100.953 31.4954 100.74 31.366L100.613 31.2919L100.466 31.3023C99.8002 31.3438 99.1195 31.3615 98.3217 31.3615C97.0217 31.3615 95.9647 31.3408 95.4201 31.3023L95.303 31.2934L95.1918 31.3408C94.9444 31.4475 94.7848 31.7128 94.776 32.0344C94.7657 32.3604 94.9151 32.6419 95.1639 32.7694L95.243 32.8094L96.2326 32.9205L96.2463 32.9221C96.5009 32.9521 96.9541 33.0054 97.0202 33.1073C97.1285 33.2733 97.1285 33.9179 97.1285 34.4366V35.2665C97.1285 35.837 97.0436 36.1067 97.0012 36.1764C96.9353 36.2801 96.4581 36.5706 95.161 36.5706C90.9859 36.5706 89.4985 33.1532 89.4985 29.9567C89.4985 27.3099 90.8731 24.4824 94.7292 24.4824C96.8811 24.4824 97.9937 25.25 98.4563 27.0536L98.49 27.1869L98.5881 27.2847C98.8194 27.5144 99.1766 27.5367 99.4108 27.4833C99.6558 27.4398 99.8615 27.2719 99.9554 27.0387L99.9993 26.9187L99.9818 26.7898C99.7797 25.4368 99.6773 24.4483 99.6773 23.857L99.6568 23.2983L99.1049 23.362C98.9526 23.3769 98.3685 23.2568 98.1196 23.2035L98.0245 23.1827C97.1319 22.976 96.22 22.8672 95.3045 22.8582C92.3708 22.8582 90.0621 23.7266 88.4371 25.4427C87.1606 26.8194 86.4564 28.6867 86.4564 30.7036C86.4564 32.6701 87.1591 34.4203 88.4855 35.7629C90.0519 37.3678 92.3385 38.2155 95.0981 38.2155C96.3673 38.2155 97.9381 37.9147 98.897 37.6583ZM84.6104 51.2536L82.9679 50.2163C82.4028 49.8606 81.4571 49.1152 81.4571 48.0897C81.4571 47.2672 81.7938 46.2876 83.4041 46.2876C84.9705 46.2876 85.4405 47.2361 85.7171 48.2631L85.745 48.3698L85.8152 48.4557C85.9723 48.6337 86.2045 48.7241 86.4389 48.6988C86.6658 48.6854 86.963 48.5861 87.1211 48.3446L87.203 48.2201V48.0689C87.203 47.1887 87.0201 45.9498 86.8019 45.3614L86.6819 45.0369H86.3379C86.2207 45.0369 85.9792 45.0013 85.7494 44.9317C85.0843 44.7517 84.3999 44.6546 83.7116 44.6427C80.955 44.6427 79.0284 46.3173 79.0284 48.7136C79.0284 50.234 79.8951 51.6478 81.4703 52.7L83.4232 53.9878C84.7656 54.8621 84.8783 55.7276 84.8783 56.47C84.8783 57.3399 84.3367 58.3551 82.8083 58.3551C81.3078 58.3551 80.2801 57.4363 79.7545 55.6253L79.6916 55.489C79.5591 55.2985 79.3419 55.187 79.1119 55.1911C78.8249 55.1971 78.5351 55.3215 78.3828 55.5364L78.2833 55.6772L78.2906 55.8491C78.3287 56.7501 78.5805 58.3728 78.9054 58.9715L78.9713 59.0946L79.0914 59.1657C79.6272 59.4769 80.7866 60 82.5419 60C85.4522 60 87.408 58.2558 87.408 55.6624C87.408 53.8722 86.493 52.4318 84.6104 51.2536ZM68.9185 58.3551C64.9512 58.3551 63.8942 54.2368 63.8942 51.8034H63.8928C63.8928 47.7325 66.2673 46.2876 68.3021 46.2876C71.9356 46.2876 73.2254 49.8502 73.2254 52.9015C73.2254 56.9265 70.905 58.3551 68.9185 58.3551ZM76.2674 52.2598C76.2674 56.6716 72.9941 60 68.652 60C64.774 60 60.8492 57.4126 60.8492 52.4673C60.8492 48.0067 64.2031 44.6427 68.652 44.6427C73.8841 44.6427 76.2674 48.5921 76.2674 52.2598ZM102.353 44.4308L102.198 44.496L102.113 44.6442L102.113 44.6445C101.93 44.9628 101.923 44.9761 100.939 44.9761H92.5435C91.63 44.9761 91.406 44.9317 91.3723 44.742L91.3431 44.5893L91.2362 44.4812C90.9581 44.1981 90.4179 44.2796 90.2158 44.4189L90.0431 44.5375L90.0065 44.7464C89.8645 45.5585 89.5673 46.8463 89.2452 47.7562L89.1764 47.9563L89.2701 48.1475C89.393 48.3786 89.6096 48.5437 89.863 48.5995C90.1119 48.6587 90.3608 48.6113 90.5467 48.4691L90.6492 48.3905L90.7019 48.272C90.9039 47.8037 91.081 47.4006 91.507 47.0064C91.9213 46.6211 93.2096 46.6211 93.6942 46.6211H94.9444V56.0536C94.9444 58.075 94.9136 58.0779 94.1245 58.1476L93.2681 58.2217L93.1657 58.2854C92.9295 58.4461 92.7991 58.7248 92.826 59.0116C92.8407 59.3154 92.9841 59.5643 93.2096 59.6755L93.3208 59.7318L93.4453 59.7288C94.3901 59.6925 95.3354 59.6718 96.2809 59.6666C97.0656 59.6666 97.7112 59.6844 98.9526 59.7273L99.08 59.7333L99.1927 59.674C99.4152 59.5628 99.5587 59.3065 99.5777 58.9908C99.5967 58.687 99.4913 58.4321 99.2879 58.2943L99.1825 58.2232L98.3963 58.1491C98.13 58.1258 97.9548 58.1104 97.8394 58.0193C97.6175 57.8439 97.6175 57.3877 97.6175 56.0536V46.6181H99.1751C100.185 46.6181 100.888 46.7604 101.26 47.0375C101.315 47.0894 101.479 47.3991 101.576 48.2097L101.594 48.3579L101.687 48.4705C101.882 48.7076 102.203 48.7625 102.435 48.7343C102.693 48.7154 102.923 48.5645 103.046 48.3342L103.11 48.2038L103.096 48.06C103.04 47.4969 103.183 45.8623 103.388 45.0858L103.437 44.9035L103.355 44.7331C103.175 44.3641 102.652 44.3063 102.353 44.4308ZM150.034 23.2035C150.237 23.335 150.368 23.5536 150.391 23.7963C150.425 24.0533 150.342 24.312 150.166 24.5002L150.048 24.6187L149.598 24.6854C149.128 24.7595 148.886 24.8544 148.798 24.9033C148.554 25.5538 148.561 27.7649 148.564 28.6126V33.8557C148.564 36.5202 148.601 37.2374 148.623 37.4301L148.636 37.5383L148.601 37.642C148.511 37.9191 148.239 38.2155 147.741 38.2155H147.484L147.336 38.0021C147.069 37.6213 146.318 36.7262 144.742 34.9123L139.979 29.4365C139.84 29.2733 139.648 29.0446 139.431 28.7865C139.335 28.672 139.234 28.5517 139.13 28.4288L138.935 28.1953L138.935 28.1951C138.728 27.9475 138.518 27.6966 138.324 27.467V32.1766C138.324 35.5806 138.598 36.1675 138.628 36.2223C138.649 36.2356 138.838 36.329 139.283 36.3631L140.146 36.449L140.278 36.6269C140.423 36.8245 140.484 37.0727 140.447 37.316C140.416 37.5314 140.3 37.7251 140.126 37.8524L139.987 37.9517L139.817 37.9443C138.835 37.9013 138.145 37.8836 137.44 37.8836C136.736 37.8812 136.033 37.9015 135.331 37.9443L135.159 37.9547L135.017 37.8524C134.824 37.706 134.704 37.4811 134.69 37.2374C134.664 36.9923 134.746 36.7479 134.916 36.5706L135.039 36.4476L135.762 36.3646C136.113 36.3201 136.238 36.2505 136.274 36.2253C136.491 35.5636 136.491 33.3322 136.491 32.4186V32.4182V32.3678V26.1807C136.491 25.6116 136.462 25.3478 136.169 25.0248C136.017 24.8707 135.668 24.7462 135.203 24.6869L134.687 24.6232L134.566 24.5046C134.377 24.3029 134.294 24.0225 134.342 23.7488C134.373 23.5064 134.519 23.2945 134.733 23.1812L134.854 23.1205L134.99 23.1309C135.835 23.1901 136.918 23.1901 137.274 23.1901C137.564 23.192 137.855 23.1732 138.142 23.1338L138.535 23.0731L138.68 23.4465C138.851 23.8911 139.583 25.0159 142.095 27.8568L144.868 31.0014L145.006 31.1583C145.651 31.8874 146.21 32.5192 146.731 33.0865V28.8971C146.731 25.5005 146.433 24.927 146.397 24.8721L146.396 24.872L146.394 24.8714C146.392 24.8706 146.388 24.8693 146.383 24.8674C146.331 24.8475 146.121 24.7676 145.482 24.6854L144.988 24.6261L144.873 24.5283C144.657 24.3283 144.56 24.0278 144.619 23.737C144.654 23.4781 144.824 23.2582 145.064 23.1605L145.157 23.1249L145.258 23.1294C146.108 23.1664 146.842 23.1901 147.658 23.1901C148.535 23.1901 149.068 23.1694 149.744 23.1294L149.901 23.1205L150.034 23.2035ZM61.0469 37.8925L61.1625 37.9502L61.2884 37.9458C62.1433 37.9064 62.9989 37.8856 63.8547 37.8836C64.6159 37.8836 65.2776 37.8999 66.38 37.9458L66.5059 37.9502L66.6186 37.8939C66.8426 37.7828 66.989 37.5264 67.008 37.2093C67.0285 36.9025 66.9202 36.6461 66.7152 36.5083L66.6171 36.4431L65.9876 36.3661C65.7039 36.3321 65.5187 36.3099 65.3978 36.2099C65.1708 36.0222 65.1708 35.5599 65.1708 34.2291V26.8446C65.1708 25.4673 65.1708 24.9979 65.3988 24.8187C65.5168 24.7261 65.6957 24.7111 65.9672 24.6884L66.6069 24.6365L66.7138 24.5654C66.9187 24.4276 67.027 24.1741 67.0095 23.8689C66.989 23.5488 66.8441 23.2924 66.6201 23.1798L66.5059 23.1235L66.38 23.1279C65.5388 23.167 64.6968 23.1877 63.8547 23.1901C62.9989 23.1884 62.1433 23.1677 61.2884 23.1279L61.161 23.1235L61.0469 23.1812C60.8229 23.2939 60.6794 23.5517 60.6604 23.8703C60.6428 24.1756 60.7497 24.429 60.9561 24.5669L61.063 24.6365L61.6998 24.6884C61.972 24.7116 62.1513 24.727 62.2695 24.82C62.4976 24.9996 62.4976 25.469 62.4976 26.8446V26.8446V34.2291C62.4976 35.5605 62.4976 36.0226 62.2707 36.2102C62.15 36.3099 61.9652 36.3321 61.6822 36.3661L61 36.449L60.8785 36.572C60.6952 36.7748 60.6185 37.0539 60.6721 37.3234C60.7145 37.5872 60.8507 37.7946 61.0483 37.8925H61.0469ZM125.658 36.5706C121.691 36.5706 120.632 32.4508 120.632 30.0174C120.632 25.948 123.007 24.5031 125.041 24.5031C128.675 24.5031 129.965 28.0657 129.965 31.117C129.965 35.142 127.644 36.5706 125.658 36.5706ZM133.007 30.4753C133.007 34.8871 129.732 38.214 125.39 38.214C121.513 38.214 117.589 35.6266 117.589 30.6828C117.589 26.2222 120.942 22.8582 125.391 22.8582C130.623 22.8582 133.007 26.8061 133.007 30.4753ZM49.2651 36.3661L48.58 36.449L48.4585 36.5735C48.2763 36.7763 48.2002 37.0547 48.2535 37.3234C48.2808 37.5622 48.4197 37.7733 48.6268 37.891L48.7439 37.9502L48.8742 37.9458C49.7212 37.9042 50.5691 37.883 51.4171 37.8821C52.2017 37.8821 52.8591 37.9013 54.1297 37.9458L54.2586 37.9502L54.3728 37.891C54.5953 37.7754 54.7387 37.5175 54.7563 37.1989C54.7724 36.8981 54.6656 36.6461 54.4606 36.5083L54.3567 36.4387L53.5325 36.3646C53.2558 36.341 53.0748 36.3255 52.9566 36.2314C52.7332 36.0536 52.7332 35.5951 52.7332 34.2706V34.2706V31.3289H54.3113C54.8793 31.3289 55.4971 31.3378 55.7415 31.409C55.8909 31.4564 55.9831 31.5379 56.0665 31.8432L56.3125 32.8064L56.4296 32.9087C56.6409 33.0785 56.9121 33.1525 57.1791 33.1132C57.3882 33.0922 57.5778 32.9802 57.6988 32.8064L57.7823 32.6805V32.5278C57.7823 32.3331 57.7684 32.0868 57.753 31.8131L57.7471 31.7083C57.7198 31.3112 57.7042 30.9134 57.7003 30.5154C57.7003 30.1306 57.7222 29.7199 57.7418 29.3514L57.7418 29.3513V29.3512V29.3511L57.7418 29.3509L57.7457 29.2779L57.7473 29.249C57.7657 28.9301 57.7823 28.6428 57.7823 28.4184V28.2673L57.6988 28.1413C57.5729 27.9531 57.3548 27.8419 57.084 27.8271C56.7883 27.8123 56.5248 27.9146 56.3725 28.0998L56.2964 28.1917L56.0856 29.1372C56.0124 29.4602 55.9685 29.4765 55.8982 29.5017C55.7899 29.5388 55.3346 29.601 54.3113 29.601H52.9147L52.7332 29.5995V25.1641V25.1636C52.7332 25.0452 52.7332 24.9269 52.7361 24.8351H54.1049C54.9276 24.8351 55.5776 24.8351 55.9714 24.9433C56.6814 25.13 56.8834 25.5998 57.0444 26.5171L57.0767 26.6949L57.2113 26.8105C57.3958 26.9706 57.6652 27.0328 57.9287 26.9795C58.1583 26.9413 58.3576 26.7981 58.4689 26.5912L58.5274 26.4726L58.5201 26.3407C58.4773 25.4374 58.4573 24.5331 58.4601 23.6288L58.4542 23.0108L57.854 23.1412C57.6271 23.1901 56.2773 23.1901 55.194 23.1901H51.4171C50.6646 23.1901 49.9809 23.1724 49.0601 23.1294L48.9298 23.1235L48.8157 23.1812C48.5931 23.2924 48.4482 23.5488 48.4277 23.8629C48.4072 24.1697 48.5141 24.4261 48.719 24.5639L48.8171 24.6306L49.2651 24.6869C50.06 24.7817 50.06 24.7817 50.06 26.8031V34.2706C50.06 35.5777 50.06 36.0302 49.8378 36.2137C49.7202 36.3109 49.5403 36.3327 49.2651 36.3661ZM79.7458 23.1249L79.8468 23.1294C80.6973 23.1664 81.4307 23.1901 82.2462 23.1901C83.126 23.1901 83.6589 23.1694 84.3323 23.1294L84.4889 23.1205L84.6207 23.2035C84.8241 23.3345 84.9565 23.5532 84.9793 23.7963C85.0129 24.0533 84.9301 24.312 84.7539 24.5002L84.6368 24.6187L84.1859 24.6854C83.716 24.7595 83.4744 24.8544 83.3866 24.9033C83.1421 25.5553 83.1494 27.7664 83.1523 28.6155V33.8557C83.1523 36.5202 83.1889 37.2374 83.2109 37.4301L83.2226 37.5383L83.1889 37.642C83.0996 37.9191 82.8273 38.2155 82.3296 38.2155H82.0719L81.9241 38.0021C81.6577 37.6213 80.9067 36.7262 79.33 34.9123L74.5678 29.4365C74.428 29.2734 74.2362 29.045 74.0198 28.7872C73.9235 28.6725 73.8224 28.552 73.7187 28.4288L72.9121 27.467V32.1766C72.9121 35.5806 73.1858 36.1675 73.2166 36.2223C73.2371 36.2356 73.4259 36.329 73.871 36.3631L74.7347 36.449L74.8664 36.6269C75.0121 36.8258 75.0723 37.0759 75.0333 37.3204C75.002 37.5352 74.8858 37.7278 74.7113 37.8539L74.5737 37.9517L74.4053 37.9443C73.423 37.9013 72.7335 37.8836 72.0279 37.8836C71.3247 37.8812 70.6217 37.9015 69.9198 37.9443L69.747 37.9547L69.605 37.8524C69.412 37.7061 69.2926 37.4811 69.2786 37.2374C69.2525 36.9923 69.3351 36.7481 69.504 36.5706L69.6255 36.4476L70.3487 36.3646C70.7001 36.3201 70.826 36.2505 70.8611 36.2253C71.0794 35.5595 71.0793 33.3047 71.0792 32.4018V32.3678V26.1807C71.0792 25.6116 71.05 25.3493 70.7572 25.0248C70.6049 24.8707 70.2565 24.7462 69.791 24.6869L69.2757 24.6232L69.1542 24.5046C68.9712 24.3209 68.8863 24.0304 68.9302 23.7488C68.9611 23.506 69.1069 23.2937 69.321 23.1798L69.4426 23.1205L69.5787 23.1309C70.4234 23.1901 71.5067 23.1901 71.8624 23.1901C72.1528 23.192 72.4428 23.1732 72.7306 23.1338L73.1229 23.0731L73.2664 23.4465C73.4406 23.8911 74.1725 25.0174 76.6847 27.8582L79.4808 31.0311L79.611 31.1782C80.2507 31.9008 80.8037 32.5255 81.3195 33.0865V28.8971C81.3195 25.502 81.0208 24.927 80.9857 24.8721C80.9838 24.8721 80.9789 24.8703 80.9696 24.8668C80.9136 24.8457 80.7004 24.7656 80.0707 24.6854L79.5759 24.6261L79.4617 24.5283C79.2454 24.3281 79.1488 24.0277 79.207 23.737C79.2431 23.4782 79.4127 23.2585 79.6521 23.1605L79.7458 23.1249ZM16.3499 36.5083L16.2533 36.4431L15.6428 36.3675C15.3669 36.3337 15.1866 36.3115 15.0688 36.2139C14.8464 36.0298 14.8464 35.5772 14.8464 34.2706V26.8016C14.8464 25.4645 14.8464 25.0074 15.0697 24.8278C15.1856 24.7346 15.3619 24.7162 15.6296 24.6884L16.1859 24.635L16.2913 24.5639C16.4963 24.4246 16.6017 24.1697 16.5812 23.8644C16.5607 23.5473 16.4158 23.2924 16.1932 23.1798L16.0776 23.122L15.9502 23.1279C15.151 23.1673 14.351 23.1881 13.5508 23.1901C12.6798 23.1901 11.9639 23.1664 11.09 23.1279L10.9626 23.1235L10.8484 23.1798C10.6259 23.2924 10.481 23.5473 10.459 23.8644C10.44 24.1697 10.5468 24.4246 10.7503 24.5639L10.8528 24.6335L11.3666 24.6869C11.6461 24.7156 11.8287 24.7344 11.9481 24.8312C12.1733 25.0139 12.1733 25.4742 12.1733 26.8031V29.3387C12.0298 29.3506 11.8073 29.3506 11.6433 29.3506H5.77293C5.61044 29.3506 5.38645 29.3506 5.24592 29.3387C5.24299 29.2809 5.24299 29.2201 5.24299 29.1861V26.8001C5.24299 25.4641 5.24299 25.0066 5.46653 24.8264C5.58293 24.7325 5.75994 24.7138 6.02912 24.6854L6.5415 24.6321L6.64398 24.5624C6.84893 24.4231 6.9558 24.1682 6.93677 23.8629C6.91627 23.5458 6.77134 23.2909 6.54736 23.1783L6.43171 23.1205L6.30434 23.1264C5.51932 23.1668 4.73344 23.1875 3.9474 23.1887C3.40867 23.1887 2.94168 23.1738 2.42783 23.1561C2.07556 23.1445 1.72324 23.1346 1.37087 23.1264L1.24936 23.1235L1.13811 23.1798C0.915586 23.2924 0.77212 23.5502 0.751625 23.8674C0.734058 24.1727 0.840926 24.4261 1.04588 24.5639L1.15421 24.6365L1.81591 24.6869C2.46883 24.7373 2.56837 24.7462 2.56837 26.8016V34.2691C2.56837 35.5532 2.56837 35.9956 2.34908 36.1877C2.23379 36.2887 2.05791 36.3205 1.78956 36.369L1.28303 36.4579L1.17178 36.572C0.990377 36.7752 0.914881 37.0534 0.968288 37.3219C1.01221 37.5842 1.14835 37.7902 1.34306 37.8895L1.45432 37.9473L1.58021 37.9443C1.76844 37.9392 1.95101 37.9326 2.13185 37.9261L2.36928 37.9176L2.46959 37.9141C2.93679 37.8974 3.40631 37.8806 3.94594 37.8806C4.73647 37.8806 5.43916 37.9028 6.53418 37.9443L6.66154 37.9488L6.77573 37.8895C6.99825 37.7769 7.14172 37.5205 7.16221 37.2034C7.18124 36.901 7.07438 36.6461 6.86942 36.5083L6.76695 36.4387L6.05255 36.3646C5.27373 36.2801 5.24299 36.2757 5.24299 34.2691V31.3438L5.24445 31.1956C5.39524 31.1808 5.63972 31.1808 5.77293 31.1808H11.6433C11.778 31.1808 12.0225 31.1808 12.1718 31.1956L12.1733 31.3438V34.2691C12.1733 35.5331 12.1733 35.9822 11.9505 36.1787C11.8277 36.287 11.6372 36.3186 11.3418 36.3675L10.7884 36.455L10.6742 36.572C10.4926 36.7751 10.4171 37.0534 10.4707 37.3219C10.4981 37.5611 10.6376 37.7724 10.8455 37.8895L10.9626 37.9488L11.0914 37.9443C11.9106 37.9028 12.7306 37.8816 13.5508 37.8806C14.3725 37.8835 15.1939 37.9048 16.0146 37.9443L16.1449 37.9488L16.2606 37.8895C16.4831 37.7754 16.6266 37.516 16.6441 37.1989C16.6617 36.8966 16.5534 36.6447 16.3499 36.5068V36.5083ZM68.7603 2.85349L68.6535 2.78236V2.78384C68.4471 2.64454 68.3402 2.39261 68.3578 2.08733C68.3768 1.76871 68.5203 1.51086 68.7442 1.39823L68.854 1.34191L68.977 1.34488C69.3198 1.35133 69.6283 1.36115 69.9197 1.37043L70.0486 1.37452C70.5566 1.3923 71.0192 1.40712 71.5521 1.40712C72.2884 1.40712 72.9706 1.38934 73.9105 1.34488L74.0393 1.33895L74.155 1.39675C74.3775 1.50937 74.5224 1.76575 74.5429 2.08437C74.5619 2.38816 74.4551 2.64306 74.2501 2.78088L74.1476 2.84905L73.6353 2.90388C73.3654 2.93181 73.188 2.95017 73.0714 3.04404C72.8477 3.22412 72.8477 3.68209 72.8477 5.0186V7.40453C72.8477 7.43861 72.8477 7.49937 72.8506 7.55717C72.9926 7.56754 73.2166 7.56754 73.3791 7.56754H79.2495C79.412 7.56754 79.6359 7.56754 79.7779 7.55717L79.7794 7.40453V5.0186C79.7794 3.69091 79.7794 3.23084 79.5543 3.04825C79.435 2.95143 79.2523 2.93264 78.9728 2.90388L78.4604 2.84905L78.3579 2.78088C78.153 2.64306 78.0461 2.38816 78.0651 2.08288C78.0856 1.76575 78.2306 1.50937 78.4531 1.39675L78.5687 1.34043L78.6961 1.34488C79.5158 1.38458 80.3363 1.40533 81.157 1.40712C81.9571 1.40506 82.7572 1.38431 83.5564 1.34488L83.6852 1.33895L83.7994 1.39675C84.0219 1.50937 84.1668 1.76427 84.1873 2.0814C84.2078 2.38816 84.101 2.64157 83.896 2.78088L83.7921 2.85053L83.2358 2.90388C82.4526 2.98538 82.4526 2.98538 82.4526 5.0186V12.4861C82.4526 14.4852 82.4526 14.4852 83.2489 14.583L83.8579 14.6601L83.956 14.7238C84.1595 14.8616 84.2664 15.1136 84.2503 15.4159C84.2327 15.7345 84.0892 15.9938 83.8667 16.108L83.7511 16.1672L83.6208 16.1613C82.8001 16.122 81.9786 16.1012 81.157 16.0991C80.3368 16.0996 79.5167 16.1203 78.6976 16.1613L78.5673 16.1672L78.4502 16.108C78.2424 15.99 78.1031 15.7784 78.0754 15.5389C78.0226 15.2706 78.0987 14.993 78.2803 14.7905L78.3945 14.6734L78.945 14.5845C79.2419 14.5355 79.4332 14.5039 79.5564 14.3951C79.7794 14.1984 79.7794 13.7489 79.7794 12.4861V9.56223C79.7794 9.52963 79.7794 9.46887 79.7765 9.41403C79.6286 9.39922 79.3841 9.39922 79.2495 9.39922H73.3791C73.2459 9.39922 72.9999 9.39922 72.8506 9.41403C72.8477 9.46887 72.8477 9.52963 72.8477 9.56223V12.4861C72.8477 14.4937 72.8784 14.4971 73.6582 14.583L73.6587 14.583L74.3731 14.6571L74.4756 14.7253C74.6805 14.8631 74.7859 15.1165 74.7683 15.4203C74.7479 15.7375 74.6044 15.9953 74.3819 16.108L74.2677 16.1657L74.1403 16.1613C73.0453 16.1198 72.3426 16.0991 71.5521 16.0991C71.0125 16.0991 70.543 16.1158 70.0758 16.1325L69.9754 16.1361L69.7408 16.1444C69.559 16.151 69.3751 16.1576 69.1849 16.1628L69.0605 16.1643L68.9492 16.108C68.7412 15.991 68.6016 15.7797 68.5744 15.5404C68.5208 15.2719 68.5963 14.9936 68.7779 14.7905L68.8892 14.6764L69.3942 14.586C69.6634 14.538 69.8397 14.5065 69.9552 14.4055C70.1745 14.2136 70.1745 13.771 70.1745 12.4876V5.0186C70.1745 2.96343 70.075 2.95575 69.4223 2.90538L69.4221 2.90536L68.7603 2.85349ZM33.6888 23.119L33.8235 23.2035C34.0096 23.3235 34.1343 23.5201 34.1646 23.7414C34.2037 23.993 34.1362 24.2497 33.9786 24.4483L33.8469 24.6084L33.1486 24.6676C32.7167 24.7017 32.5498 24.844 32.5308 24.8781C32.2907 25.4516 32.2907 27.9546 32.2907 28.8971V31.243C32.2907 33.663 31.7769 35.3969 30.7199 36.5409C29.7727 37.5887 28.1712 38.2155 26.4394 38.2155C24.6446 38.2155 23.245 37.7917 22.2788 36.9529C21.0711 35.9407 20.5045 34.2617 20.5045 31.6772V26.7824C20.5045 25.4326 20.5045 24.9731 20.2811 24.797C20.1658 24.7062 19.9909 24.6908 19.7257 24.6676L19.0875 24.6158L18.9806 24.5446C18.7756 24.4068 18.6702 24.1578 18.6878 23.8629C18.7054 23.5502 18.8503 23.2954 19.0743 23.1827L19.1885 23.1235L19.3173 23.1279C20.3084 23.1694 21.0037 23.1916 21.8411 23.1916C22.6873 23.1916 23.3739 23.1694 24.3445 23.1279L24.4733 23.122L24.5889 23.1812C24.8115 23.2954 24.9564 23.5473 24.9754 23.8585C24.993 24.1549 24.8861 24.4053 24.6841 24.5431L24.5772 24.6143L23.9551 24.6676C23.6913 24.6908 23.5172 24.7061 23.4023 24.7966C23.1792 24.9722 23.1792 25.4314 23.1792 26.7824V31.2623C23.1792 34.7463 24.3108 36.3008 26.8493 36.3008C29.2428 36.3008 30.4579 34.6129 30.4579 31.283V28.8971C30.4579 25.5998 30.187 24.9477 30.1314 24.8499C30.1168 24.8247 29.9557 24.7047 29.499 24.6691L28.7817 24.6098L28.6484 24.4542C28.4934 24.2654 28.4257 24.0183 28.4625 23.7755C28.4868 23.5492 28.6056 23.3442 28.789 23.2124L28.9266 23.119L29.0905 23.1279C29.8664 23.1709 30.6248 23.1916 31.4036 23.1916C32.1136 23.1932 32.8235 23.1719 33.5321 23.1279L33.6888 23.119ZM57.021 45.8179C56.0182 45.1925 54.7226 44.9139 52.8195 44.9139C50.9662 44.9139 49.7584 44.9406 48.6912 45.0843L48.6092 45.0947L48.536 45.1317C48.3082 45.2534 48.1558 45.4827 48.1305 45.7423C48.0904 46.0175 48.1894 46.2947 48.394 46.4803L48.5112 46.5811L49.3998 46.6789C49.9034 46.7352 49.9239 46.7381 49.9239 48.4009V56.0551C49.9239 57.3471 49.9239 57.7985 49.7013 57.9868C49.5818 58.0879 49.3981 58.1132 49.1158 58.152L48.5229 58.2395L48.4058 58.358C48.223 58.5605 48.1468 58.8391 48.2008 59.1079C48.2279 59.3484 48.3688 59.5606 48.5785 59.677L48.6927 59.7362L48.82 59.7288C49.7819 59.6844 50.5006 59.6681 51.3014 59.6681C52.1037 59.6681 52.7551 59.6873 53.9511 59.7288L54.077 59.7347L54.1898 59.677C54.3991 59.5732 54.5382 59.3465 54.5733 59.059C54.6085 58.7552 54.5192 58.4884 54.3288 58.3269L54.2147 58.2306L53.509 58.1506C53.1727 58.1134 52.9604 58.0899 52.8264 57.9751C52.597 57.7786 52.597 57.3142 52.597 56.0551V46.8048C52.597 46.7456 52.597 46.6522 52.5999 46.5825C52.7683 46.5588 53.0889 46.5588 53.2089 46.5588C54.9949 46.5588 56.0197 47.5843 56.0197 49.3745C56.0197 51.1084 55.2145 52.0302 53.4066 52.368L53.3436 52.3843C53.0918 52.4673 52.9264 52.7059 52.9118 53.0097C52.8971 53.3357 53.0581 53.6203 53.3217 53.7359L53.4153 53.7774H53.5178C54.5528 53.7774 55.6918 53.5254 56.5687 53.1046C57.4383 52.6748 58.8978 51.6167 58.8978 49.3553C58.8978 47.8674 58.2156 46.5781 57.021 45.8164V45.8179ZM46.1967 26.4726L46.1908 26.3393C46.1513 25.6027 46.1293 24.6395 46.1293 23.6273L46.1235 23.0093L45.5247 23.1398C45.2963 23.1887 43.9466 23.1887 42.8633 23.1887H39.0863C38.3339 23.1887 37.6502 23.1724 36.7294 23.1279L36.6006 23.1205L36.4864 23.1798C36.2638 23.2909 36.1189 23.5458 36.097 23.8615C36.0779 24.1682 36.1848 24.4231 36.3897 24.5624L36.4878 24.6291L36.9343 24.6854C37.2083 24.7181 37.3878 24.7395 37.5055 24.8362C37.7292 25.0201 37.7292 25.4763 37.7292 26.8001V34.2691C37.7292 35.5768 37.7292 36.0291 37.5072 36.2125C37.3898 36.3095 37.2102 36.3313 36.9358 36.3646L36.2492 36.4476L36.1292 36.572C35.9475 36.7751 35.8714 37.0532 35.9242 37.3219C35.9508 37.561 36.0891 37.7727 36.2961 37.891L36.4132 37.9502L36.5435 37.9443C37.4496 37.9043 38.1567 37.8806 39.0863 37.8806C39.9909 37.8849 40.8952 37.9062 41.799 37.9443L41.9278 37.9488L42.0435 37.8895C42.2645 37.7754 42.408 37.5146 42.4256 37.1974C42.4417 36.8951 42.3363 36.6447 42.1313 36.5068L42.0259 36.4372L41.2017 36.3631C40.9257 36.3395 40.7452 36.3241 40.6272 36.2302C40.4039 36.0526 40.4039 35.5942 40.4039 34.2691V31.3275L40.5854 31.326H41.982C42.5485 31.326 43.1663 31.3364 43.4123 31.4075C43.5616 31.4564 43.6538 31.5364 43.7373 31.8417L43.9832 32.8035L44.1018 32.9072C44.3127 33.0756 44.5824 33.1494 44.8484 33.1117C45.057 33.0905 45.2464 32.9792 45.3681 32.8064L45.4515 32.679V32.5264C45.4515 32.307 45.4354 32.0225 45.4164 31.7068L45.4163 31.7048C45.3943 31.3334 45.3695 30.9133 45.3695 30.5139C45.3695 30.1034 45.3944 29.6632 45.4164 29.2779C45.4354 28.946 45.4515 28.6481 45.4515 28.4184V28.2658L45.3666 28.1398C45.2436 27.9516 45.0241 27.8405 44.7518 27.8256C44.4546 27.8108 44.194 27.9131 44.0418 28.0983L43.9671 28.1902L43.7548 29.1357C43.6816 29.4587 43.6392 29.475 43.5674 29.5002C43.4606 29.5373 43.0053 29.598 41.982 29.598H40.4039V25.1626C40.4039 25.0455 40.4039 24.9255 40.4068 24.8336H41.7756C42.5983 24.8336 43.2468 24.8336 43.6421 24.9433C44.3521 25.1285 44.5541 25.5983 44.7152 26.5141L44.7459 26.692L44.882 26.809C45.0831 26.9733 45.3473 27.0355 45.5994 26.978C45.8285 26.9396 46.0274 26.7964 46.1381 26.5897L46.1967 26.4726Z" fill="#DADADA"/>
</svg>
