<svg width="115" height="30" viewBox="0 0 115 30" fill="none" xmlns="http://www.w3.org/2000/svg">
<path fill-rule="evenodd" clip-rule="evenodd" d="M59.8559 29.22C61.2412 29.5041 62.6366 29.7366 64.0391 29.9172V29.9157C65.2372 30.0386 68.0284 30.0214 68.9184 29.8872C72.7779 29.3043 75.6874 27.0614 77.0424 23.6243C77.4032 22.7143 77.7484 21.31 77.8696 20.2672C78.0108 19.0457 77.9309 16.6057 77.717 15.6243C76.8983 11.86 74.5507 9.26002 71.3815 8.60287C70.8966 8.50287 70.4573 8.48287 69.5131 8.51573C68.094 8.5643 67.1156 8.77716 66.0545 9.26859C65.7036 9.43145 65.3955 9.5643 65.3727 9.5643C65.3484 9.5643 65.3513 7.41287 65.3798 4.78287C65.4198 1.07716 65.4084 1.70931e-05 65.3313 1.70931e-05C65.0646 -0.00426862 56.6582 1.60145 56.5655 1.6743C56.4985 1.73002 56.4685 1.90716 56.4842 2.17716L56.4876 2.24278C56.4942 2.37809 56.4985 2.46516 56.5389 2.52956C56.6118 2.64583 56.8026 2.68819 57.3378 2.807L57.4798 2.83859C57.7893 2.91002 58.1501 3.04287 58.2827 3.13859C58.625 3.38145 58.9089 3.91002 59.1057 4.66716C59.2612 5.2643 59.2826 5.69145 59.3539 9.72859C59.428 13.8529 59.4138 18.0914 59.2997 25.8572L59.2526 29.0814L59.8559 29.22ZM0.355062 29.46C0.286601 29.4314 0.252371 29.2272 0.252371 28.8457L0.252287 28.7835C0.251821 28.5551 0.251532 28.4141 0.315859 28.3149C0.419891 28.1545 0.692925 28.1038 1.40753 27.9709L1.52745 27.9486C2.5401 27.7614 2.90094 27.5686 3.34879 26.9829C4.21453 25.8443 4.40137 23.6543 4.40422 14.6343C4.40422 6.1643 4.24306 4.38287 3.34594 3.07287C2.94943 2.49287 2.27909 2.17716 1.15662 2.04287L0.292306 1.93859L0.269486 1.26287L0.245239 0.58716L0.516229 0.538589C0.664561 0.512874 5.89752 0.501446 12.1431 0.514303L23.499 0.53716L23.5518 0.86716C23.5803 1.04859 23.6288 2.91002 23.6588 5.00145L23.713 8.80573L23.1282 8.9843L23.1147 8.98837C22.7113 9.11048 22.4958 9.17568 22.3414 9.1059C22.1644 9.02597 22.0675 8.76889 21.8595 8.2173L21.8546 8.2043C20.8804 5.62287 19.7637 4.13573 18.2361 3.38573C17.1807 2.86716 16.6958 2.8043 13.7177 2.8043H11.1276L11.0834 3.23716C10.9993 4.04859 10.868 9.27002 10.8695 11.7286V14.1814L11.6311 14.1772C12.2429 14.1676 12.8545 14.1448 13.4653 14.1086C14.3538 14.0557 14.6163 14.0086 14.9885 13.8372C15.9013 13.4129 16.5218 12.4814 16.9011 10.9657L17.098 10.1829L17.7697 10.1586L18.4415 10.1357V20.0414L17.7697 20.0172L17.098 19.9929L16.9068 19.21C16.5489 17.7386 15.8585 16.6857 15.0056 16.3072C14.612 16.1329 13.6379 16.0343 11.7538 15.9772L10.8695 15.9486V17.81C10.8695 19.8386 10.9807 22.5814 11.1233 24.07C11.323 26.1457 11.8507 27.2929 12.8021 27.7072C12.9846 27.7872 13.558 27.9157 14.0786 27.9929C14.5992 28.0714 15.0912 28.1686 15.1697 28.21C15.3693 28.3143 15.3836 29.3886 15.1839 29.4643C15.027 29.5243 0.503393 29.5214 0.355062 29.46ZM40.928 29.4443C40.8524 29.3972 40.8281 29.2072 40.8452 28.8072L40.8695 28.2372L41.1576 28.1757C41.3159 28.1414 41.6568 28.0757 41.9135 28.0272C42.7122 27.8772 43.1686 27.4443 43.4268 26.5957C43.6364 25.9043 43.7292 23.6929 43.7349 19.2514C43.7406 13.82 43.6279 12.5372 43.0788 11.8086C42.7821 11.4157 42.5667 11.3029 41.8465 11.1657L41.0135 11.0014C40.8495 10.9672 40.8281 10.9129 40.8281 10.51C40.8281 10.1172 40.8538 10.0457 41.0135 9.98002C41.2603 9.87859 49.4142 8.24573 49.6738 8.24573H49.8778L49.8378 9.46145C49.8164 10.13 49.7808 11.1043 49.7594 11.6257L49.7223 12.5743L50.0175 12.04C50.9632 10.3329 52.0229 9.27145 53.4334 8.62573C54.2079 8.26859 54.7242 8.16287 55.6798 8.16287C56.8151 8.16287 57.9476 8.5343 57.9476 8.90573C57.9476 9.1543 55.9508 14.4429 55.8396 14.4843C55.7868 14.5057 55.3974 14.3557 54.9724 14.1529C54.091 13.7286 53.2623 13.5214 52.4593 13.5243C51.4581 13.5243 50.3399 13.8957 49.8992 14.3686C49.7097 14.5712 49.7095 14.5829 49.6625 17.6025V17.6025V17.6026V17.6026V17.6027V17.6027V17.6028V17.6028L49.6624 17.6114C49.6153 20.6114 49.7152 24.2714 49.8835 25.7429C50.0261 26.9957 50.3599 27.6143 51.0473 27.9C51.2755 27.9972 52.726 28.1957 53.1981 28.1957C53.2352 28.1957 53.2537 28.4829 53.2409 28.8343L53.2152 29.4743L47.1251 29.4929C43.7748 29.5043 40.9864 29.4829 40.928 29.4443ZM99.5859 28.9514C100.363 29.2872 102.697 29.7986 104.164 29.9557V29.9572C104.344 29.9757 105.345 29.9814 106.386 29.9714C108.192 29.95 108.322 29.9386 109.23 29.7C111.913 29 113.649 27.5014 114.419 25.2286C114.654 24.5314 114.689 24.3172 114.721 23.2786C114.767 21.8943 114.64 21.1743 114.189 20.2743C113.498 18.8886 112.224 17.94 109.554 16.8229C107.375 15.91 106.281 15.2786 105.613 14.5472C105.071 13.9529 104.913 13.4729 104.966 12.5843C105.014 11.7643 105.214 11.2772 105.727 10.7272C106.386 10.0229 107.291 9.77573 108.375 10.0057C110.153 10.3814 111.296 11.6157 112.277 14.2229C112.628 15.1529 112.67 15.1814 113.298 14.9472L113.697 14.7986L113.683 13.7272C113.676 13.1386 113.645 11.9014 113.616 10.9772L113.563 9.29859L113.267 9.17287C111.641 8.48287 108.537 8.05287 106.515 8.23859C104.218 8.44859 102.531 9.17859 101.233 10.5257C99.9425 11.8643 99.3605 13.4357 99.4632 15.3C99.5488 16.8414 100.005 17.95 100.952 18.9214C101.834 19.8243 102.572 20.25 104.689 21.0786C108.108 22.4157 109.014 23.2086 109.005 24.8572C108.999 26.25 108.262 27.2686 106.918 27.7429C106.439 27.9129 105.224 27.9129 104.576 27.7414C102.876 27.2929 101.577 25.8186 100.469 23.0843L100.184 22.3843L99.8498 22.4C99.6658 22.4086 99.4133 22.4643 99.2892 22.5243L99.061 22.6329L99.0824 23.8272C99.0938 24.4843 99.1266 25.87 99.1552 26.9057L99.2065 28.7886L99.5859 28.9514ZM90.2867 16.4386L91.7186 16.3886L91.6673 15.37C91.4847 11.7772 90.6076 9.81287 89.1842 9.81573C87.6367 9.81573 86.4001 11.81 85.8866 15.13C85.8284 15.4857 85.7894 15.8444 85.7697 16.2043L85.7683 16.5386L87.3115 16.5129C88.1601 16.4986 89.4994 16.4657 90.2867 16.4386ZM79.7437 21.9729C80.6993 26.2386 83.6189 29.1386 87.7023 29.8757C88.6008 30.0386 90.6418 30.0414 91.5503 29.8829C92.8482 29.6543 94.3444 29.0772 95.2871 28.44C96.4396 27.66 97.6205 26.4886 97.6205 26.1257C97.6205 25.9029 97.224 25.3929 97.0529 25.3929C96.9773 25.3929 96.6564 25.56 96.3426 25.7643C95.2158 26.4929 94.139 26.7929 92.6414 26.7929C90.5748 26.7929 89.2655 26.2786 87.949 24.9472C87.3671 24.3572 87.1261 24.04 86.8251 23.4557C86.1633 22.1714 85.8039 20.6943 85.7497 19.0257L85.7269 18.3043L91.817 18.2829L97.9072 18.2614L97.9357 17.85C97.95 17.6229 97.92 17.03 97.8687 16.5314C97.4893 12.8272 95.9917 10.2757 93.4473 8.99859C91.1866 7.8643 87.6937 7.94573 85.1407 9.19287C82.7203 10.3743 81.0545 12.3457 80.1245 15.1286C79.641 16.5772 79.4884 17.7429 79.5369 19.6229C79.5683 20.81 79.6225 21.4243 79.7437 21.9729ZM67.3381 28.2772C67.9371 28.1629 68.4007 27.9257 68.8984 27.4772C70.1493 26.35 71.0892 24.0272 71.4586 21.1486C71.6097 19.9743 71.5883 17.3029 71.4215 16.3243C70.9708 13.6772 70.0009 11.9372 68.5861 11.2357C67.9985 10.9457 67.9086 10.9243 67.2126 10.9243C66.7134 10.9243 66.2855 10.9786 65.9218 11.0857L65.377 11.2472L65.337 14.26C65.2857 18.12 65.4112 27.7829 65.5153 28.06C65.5824 28.2357 65.658 28.2743 65.9903 28.3C66.7747 28.3614 66.9031 28.36 67.3381 28.2772ZM31.6772 28.3172C32.2591 28.1429 32.978 27.4686 33.3616 26.7343C34.1532 25.2172 34.5069 22.9772 34.5155 19.4157C34.5269 14.9543 33.828 12.1157 32.3547 10.63C31.7357 10.0057 31.2964 9.81145 30.5048 9.81287C28.7491 9.81573 27.6352 11.6514 27.1945 15.2672C26.992 16.93 26.9905 20.89 27.1916 22.3429C27.8163 26.84 29.4266 28.9857 31.6758 28.3172H31.6772ZM23.616 27.4586C24.9495 28.78 26.6939 29.6272 28.6906 29.9172H28.6892C29.4052 30.0214 31.6587 30.0243 32.3975 29.9214C32.7469 29.8729 33.3517 29.7414 33.741 29.6272C37.3595 28.5786 39.8283 25.7929 40.6769 21.8072C40.8838 20.8329 40.9693 18.4743 40.8381 17.3557C40.406 13.6986 38.8585 11.02 36.3026 9.51287C33.4615 7.83859 29.1456 7.74145 26.0791 9.2843C23.8642 10.3972 22.0542 12.5414 21.2512 15.0057C20.4212 17.5486 20.4226 20.8843 21.2512 23.48C21.7832 25.1414 22.5035 26.3543 23.616 27.4586Z" fill="#DADADA"/>
</svg>
